<svg width="1224" height="1227" viewBox="0 0 1224 1227" fill="none" xmlns="http://www.w3.org/2000/svg">
<path d="M1121.49 613.5C1121.49 331.015 893.168 102.27 611.862 102.27C330.563 102.278 102.273 331.02 102.27 613.5C102.27 895.983 330.561 1124.72 611.862 1124.73C893.17 1124.73 1121.49 895.988 1121.49 613.5ZM1223.76 613.5C1223.76 952.19 949.932 1227 611.862 1227C273.799 1226.99 0 952.185 0 613.5C0.00327496 274.817 273.801 0.00755546 611.862 0C949.93 0 1223.76 274.813 1223.76 613.5Z" fill="#fff"/>
<path d="M716.56 816.719C713.838 811.258 711.524 804.976 709.62 797.877C707.712 790.775 706.079 783.265 704.717 775.346C698.454 782.172 691.238 788.592 683.07 794.598C674.898 800.608 665.778 805.935 655.701 810.575C645.9 814.944 635.006 818.361 623.025 820.815C611.045 823.546 598.112 824.915 584.223 824.915C561.623 824.915 540.79 821.636 521.731 815.082C502.94 808.527 486.737 799.381 473.124 787.637C459.507 775.894 448.887 761.965 441.262 745.854C433.637 729.466 429.829 711.717 429.829 692.599C429.829 645.899 447.117 609.853 481.701 584.453C516.557 558.784 568.43 545.948 637.323 545.948H700.633V519.731C700.633 498.427 693.689 481.633 679.8 469.345C665.915 456.781 645.9 450.499 619.759 450.499C596.613 450.499 579.73 455.554 569.11 465.656C558.491 475.489 553.18 488.736 553.18 505.392H439.63C439.63 486.55 443.714 468.663 451.882 451.73C460.325 434.798 472.443 419.914 488.237 407.078C504.301 394.242 523.773 384.14 546.644 376.765C569.791 369.118 596.203 365.295 625.885 365.295C652.569 365.295 677.349 368.572 700.224 375.127C723.371 381.681 743.382 391.377 760.265 404.209C777.148 417.046 790.356 433.295 799.885 452.958C809.419 472.348 814.183 494.879 814.183 520.548V710.624C814.183 734.383 815.679 754.046 818.677 769.612C821.671 785.179 826.026 798.56 831.747 809.755V816.719H716.56ZM608.322 736.841C619.759 736.841 630.379 735.476 640.18 732.745C649.984 730.011 658.833 726.463 666.73 722.091C674.626 717.723 681.433 712.806 687.154 707.345C692.871 701.612 697.364 695.874 700.633 690.141V613.948H642.631C624.933 613.948 609.821 615.724 597.293 619.272C584.766 622.551 574.556 627.329 566.659 633.611C558.763 639.617 552.908 646.992 549.096 655.732C545.283 664.196 543.379 673.481 543.379 683.587C543.379 698.881 548.686 711.579 559.306 721.685C570.2 731.786 586.536 736.841 608.322 736.841Z" fill="#fff"/>
</svg>
